<svg width="37" height="37" viewBox="0 0 37 37" fill="none" xmlns="http://www.w3.org/2000/svg">
<rect width="37" height="37" rx="18.5" fill="white"/>
<path d="M22.3794 20.3047C25.3062 20.3047 27.7188 22.7173 27.7188 25.644V26.6328C27.7188 27.7007 26.8486 28.5312 25.8203 28.5312H11.8984C10.8306 28.5312 10 27.7007 10 26.6328V25.644C10 22.7173 12.373 20.3047 15.2998 20.3047C16.4468 20.3047 16.9609 20.9375 18.8594 20.9375C20.7183 20.9375 21.2324 20.3047 22.3794 20.3047ZM25.8203 26.6328V25.644C25.8203 23.7456 24.2778 22.2031 22.3794 22.2031C21.7861 22.2031 20.8765 22.8359 18.8594 22.8359C16.8027 22.8359 15.8931 22.2031 15.2998 22.2031C13.4014 22.2031 11.8984 23.7456 11.8984 25.644V26.6328H25.8203ZM18.8594 19.6719C15.6953 19.6719 13.1641 17.1406 13.1641 13.9766C13.1641 10.8521 15.6953 8.28125 18.8594 8.28125C21.9839 8.28125 24.5547 10.8521 24.5547 13.9766C24.5547 17.1406 21.9839 19.6719 18.8594 19.6719ZM18.8594 10.1797C16.7632 10.1797 15.0625 11.9199 15.0625 13.9766C15.0625 16.0728 16.7632 17.7734 18.8594 17.7734C20.916 17.7734 22.6562 16.0728 22.6562 13.9766C22.6562 11.9199 20.916 10.1797 18.8594 10.1797Z" fill="#03045E"/>
</svg>
